<svg width="16" height="12" fill="none" xmlns="http://www.w3.org/2000/svg">
  <mask id="a" maskUnits="userSpaceOnUse" x="0" y="0" width="16" height="12">
    <path fill="#fff" d="M0 0h16v12H0z"/>
  </mask>
  <g mask="url(#a)" fill-rule="evenodd" clip-rule="evenodd">
    <path d="M11 0h5v12h-5V0z" fill="#67BD38"/>
    <path d="M5 0h6v12H5V0z" fill="#D51700"/>
    <path d="M0 0h5v12H0V0z" fill="#272727"/>
    <path d="M5 6.05a3.05 3.05 0 105.48-1.844l-.443 1.338A2.055 2.055 0 019.3 7.675V5.3H9a1 1 0 00-2 0h-.3v2.293a2.045 2.045 0 01-.662-1.937H6l-.37-1.462A3.037 3.037 0 005 6.05zm2.7.204V8.07a2.063 2.063 0 00.6.015v-1.83a1 1 0 01-.6 0z" fill="#F7FCFF"/>
  </g>
</svg>
