<svg width="16" height="12" fill="none" xmlns="http://www.w3.org/2000/svg">
  <mask id="a" maskUnits="userSpaceOnUse" x="0" y="0" width="16" height="12">
    <path fill="#fff" d="M0 0h16v12H0z"/>
  </mask>
  <g mask="url(#a)">
    <path fill-rule="evenodd" clip-rule="evenodd" d="M0 0h16v12H0V0z" fill="#F7FCFF"/>
    <path d="M0-.5h-.5v6.154L-1.424 6l.924.346V12.5H16l.176-.968L1.424 6 16.176.468 16-.5H0z" fill="#3547A0" stroke="#E31D1C"/>
    <path fill-rule="evenodd" clip-rule="evenodd" d="M14.045 3.014S10.013 4.06 10.013 4.22c0 .162-.363.672-.288.805.074.133.267.31.425.222.159-.089.535-.443.409-.222-.127.222.679.48.34.968 0 0 .407-.235.21 1.102l.97.277s1.085-.284.59-1.098h.574s-.238-1.054.114-1.249c.352-.195-.358-.342-.358-.342 1.502-.856 1.046-1.67 1.046-1.67z" fill="#C44800"/>
    <path fill-rule="evenodd" clip-rule="evenodd" d="M13.377 7.485l-2.433-.411-.32-.427-1.38.278 1.212.688.408-.22 2.513.401v-.309z" fill="#FFC221"/>
    <path fill-rule="evenodd" clip-rule="evenodd" d="M13.751 7.86v-.242l-2.728-.166s-.165-.152-.57-.152c-.407 0-.453.318-.453.318s.233.464.684.464c.451 0 1.153.109 1.343.332.19.223.978-.115.978-.115s-.337-.579-.769-.398c-.431.181-1.213-.087-1.213-.185s2.728.143 2.728.143zM9.143 5.907s-.265.567-.169.781c.423.442 1.19-.261 1.19-.261l-1.021-.52z" fill="#FFC221"/>
    <path fill-rule="evenodd" clip-rule="evenodd" d="M13.314 6.178c.28-.145.424-.412.424-.761 0-.268-.064-.48-.206-.616v-.183l-.247-.003c-2.22-.02-3.47.2-3.831.75-.367.555-.335 1.03.164 1.26l.22-.006c1.078-.562 2.174-.701 3.301-.421l.175-.02zm-3.652-.676c.293-.444 1.5-.656 3.62-.637v.064c.137.065.206.228.206.488s-.096.44-.289.538c-1.186-.295-2.345-.147-3.476.443-.333-.154-.353-.453-.06-.896z" fill="#979797"/>
    <path d="M13.282 4.865c-2.12-.019-3.327.193-3.62.637-.292.443-.272.742.06.896 1.132-.59 2.29-.738 3.477-.443.193-.099.289-.278.289-.538s-.069-.423-.206-.488v-.064z" fill="#F7FCFF"/>
  </g>
</svg>
