<svg width="16" height="12" fill="none" xmlns="http://www.w3.org/2000/svg">
  <mask id="a" maskUnits="userSpaceOnUse" x="0" y="0" width="17" height="12">
    <path fill="#fff" d="M0 0h17v12H0z"/>
  </mask>
  <g mask="url(#a)" fill-rule="evenodd" clip-rule="evenodd">
    <path d="M0 0h16v12H0V0z" fill="#2E42A5"/>
    <path d="M5 0h10v12L5 0z" fill="#FECA00"/>
    <path d="M3.554 1.397l-.588.309.112-.655-.475-.463.657-.096.294-.595.294.595.657.096-.475.463.112.655-.588-.31zm1.743 2.14l-.587.309.112-.655-.476-.463.657-.096.294-.595.294.595.657.096-.475.463.112.655-.588-.309zM6.932 5.62l-.588.308.112-.654-.475-.464.657-.095.294-.596.294.596.657.095-.476.464.112.654-.587-.309zm1.601 1.995l-.588.309.112-.655-.475-.463.657-.096.294-.595.294.595.657.096-.476.463.112.655-.587-.31zm1.724 2.053l-.588.31.113-.655-.476-.464.657-.095.294-.596.294.596.657.095-.475.464.112.654-.588-.309zm1.907 1.987l-.588.31.112-.655-.476-.463.658-.096.294-.595.293.595.657.096-.475.463.112.654-.587-.309z" fill="#F7FCFF"/>
  </g>
</svg>
