<svg width="16" height="12" fill="none" xmlns="http://www.w3.org/2000/svg">
  <mask id="a" maskUnits="userSpaceOnUse" x="0" y="0" width="16" height="12">
    <path fill="#fff" d="M0 0h16v12H0z"/>
  </mask>
  <g mask="url(#a)">
    <path fill-rule="evenodd" clip-rule="evenodd" d="M0 0v12h16V0H0z" fill="#FFD221"/>
    <mask id="b" maskUnits="userSpaceOnUse" x="0" y="0" width="16" height="12">
      <path fill-rule="evenodd" clip-rule="evenodd" d="M0 0v12h16V0H0z" fill="#fff"/>
    </mask>
    <g mask="url(#b)">
      <path d="M-1.534 5.308l1.004-2.29 17.414 7.636-1.004 2.29-17.414-7.636z" fill="#313131"/>
      <path d="M-1.509 2.785L-.505.495l18.28 8.012-1.004 2.29-18.28-8.012z" fill="#FAF9F9"/>
      <path fill-rule="evenodd" clip-rule="evenodd" d="M8 1.444a.5.5 0 00-.5.5v1.814a1.461 1.461 0 00-.634-.158c-.549 0-1.166.768-1.166.768s1.02.028 1.8.802v2.774c-.863-.229-1.234-1.107-1.136-2.903l-1.498-.082c-.157 2.884.909 4.546 3.155 4.546 2.235 0 3.337-1.647 3.262-4.524l-1.5.038c.048 1.835-.37 2.724-1.283 2.936v-2.88c.765-.682 1.7-.707 1.7-.707S9.583 3.6 9.034 3.6c-.198 0-.38.05-.534.113v-1.77a.5.5 0 00-.5-.5zM2.91 5.492a.5.5 0 11.18-.984c.999.183 1.542.878 1.542 1.94v2.026a.5.5 0 11-1 0V6.449c0-.593-.212-.864-.722-.957zm10.614-.582a.5.5 0 01-.402.582c-.51.093-.722.364-.722.957v2.025a.5.5 0 11-1 0V6.449c0-1.063.543-1.758 1.542-1.94a.5.5 0 01.582.401zM4.87 9.22l.826-.563c.463.68 1.211 1.02 2.303 1.02 1.1 0 1.793-.265 2.133-.758l.823.568c-.557.806-1.56 1.19-2.956 1.19-1.404 0-2.467-.484-3.13-1.457z" fill="#CF1225"/>
    </g>
  </g>
</svg>
