<svg width="16" height="12" fill="none" xmlns="http://www.w3.org/2000/svg">
  <mask id="a" maskUnits="userSpaceOnUse" x="0" y="0" width="16" height="12">
    <path fill="#fff" d="M0 0h16v12H0z"/>
  </mask>
  <g mask="url(#a)" fill-rule="evenodd" clip-rule="evenodd">
    <path d="M4 0h8.5v12H4V0z" fill="#F7FCFF"/>
    <path d="M7.164 4.201L7.987 3 8 10h-.343l.21-1.732s-2.305.423-2.115.21c.191-.214.3-.606.3-.606L4 6.474s.324-.004.587-.164c.264-.16-.263-1.109-.263-1.109l1.036.154.392-.435.782.836h.352l-.352-1.914.63.36zM8 10V3l.836 1.201.63-.359-.352 1.914h.352l.782-.836.392.435 1.036-.154s-.527.949-.263 1.109c.263.16.587.164.587.164L9.947 7.872s.11.392.3.606c.191.213-2.115-.21-2.115-.21L8.342 10H8zm4-10h4v12h-4V0zM0 0h4v12H0V0z" fill="#E31D1C"/>
  </g>
</svg>
