<svg width="16" height="12" fill="none" xmlns="http://www.w3.org/2000/svg">
  <mask id="a" maskUnits="userSpaceOnUse" x="0" y="0" width="16" height="12">
    <path fill="#fff" d="M0 0h16v12H0z"/>
  </mask>
  <g mask="url(#a)">
    <path fill-rule="evenodd" clip-rule="evenodd" d="M0 0v12h16V0H0z" fill="#F7FCFF"/>
    <mask id="b" maskUnits="userSpaceOnUse" x="0" y="0" width="16" height="12">
      <path fill-rule="evenodd" clip-rule="evenodd" d="M0 0v12h16V0H0z" fill="#fff"/>
    </mask>
    <g mask="url(#b)" fill-rule="evenodd" clip-rule="evenodd">
      <path d="M12.284 2.38S9.643 3.839 9.31 3.93c-.332.093-.11.149-.683.112-.573-.037-1.7.206-1.958.04-.258-.167-.35-.462-.369.037-.019.498.388.923-.13.96-.516.037-.572-.444-.923-.148-.35.295-.646.96-.868.794-.221-.166-.535-.61-.443-.185.092.425.37 1.495 1.256 1.513.886.019 1.071-.295 1.108-.036.037.258.425.295.517-.037.092-.333.85.37 1.256.02.406-.351.739-.647.868-.85.13-.203.572-.166.997-.166.425 0 1.053.184.72-.222-.332-.406-.905-.59-.572-.997.332-.406 3.153-1.757 3.283-1.905.129-.148-.698-.702-1.085-.48z" fill="#F57A01"/>
      <path d="M12.284 2.38S9.643 3.839 9.31 3.93c-.332.093-.11.149-.683.112-.573-.037-1.7.206-1.958.04-.258-.167-.35-.462-.369.037-.019.498.388.923-.13.96-.516.037-.572-.444-.923-.148-.35.295-.646.96-.868.794-.221-.166-.535-.61-.443-.185.092.425.37 1.495 1.256 1.513.886.019 1.071-.295 1.108-.036.037.258.425.295.517-.037.092-.333.85.37 1.256.02.406-.351.739-.647.868-.85.13-.203.572-.166.997-.166.425 0 1.053.184.72-.222-.332-.406-.905-.59-.572-.997.332-.406 3.153-1.757 3.283-1.905.129-.148-.698-.702-1.085-.48z" fill="url(#CY_-_Cyprus__paint0_linear)"/>
      <path d="M5.456 8.052c1.311 0 2.438 1.46 2.438 1.46a.867.867 0 01.052.054L8 9.511s1.314-1.459 2.625-1.459-.944 2.124-2.403 2.124c0 0-.15-.014-.275-.076a.89.89 0 01-.274.076c-1.459 0-3.527-2.124-2.216-2.124z" fill="#006B49"/>
      <path d="M5.456 8.052c1.311 0 2.438 1.46 2.438 1.46a.867.867 0 01.052.054L8 9.511s1.314-1.459 2.625-1.459-.944 2.124-2.403 2.124c0 0-.15-.014-.275-.076a.89.89 0 01-.274.076c-1.459 0-3.527-2.124-2.216-2.124z" fill="url(#CY_-_Cyprus__paint1_linear)"/>
    </g>
  </g>
  <defs>
    <linearGradient id="CY_-_Cyprus__paint0_linear" x1="15" y1="9" x2="15" y2="1" gradientUnits="userSpaceOnUse">
      <stop stop-color="#EA5113"/>
      <stop offset="1" stop-color="#FC9B58"/>
    </linearGradient>
    <linearGradient id="CY_-_Cyprus__paint1_linear" x1="11.019" y1="10.176" x2="11.019" y2="8.052" gradientUnits="userSpaceOnUse">
      <stop stop-color="#008057"/>
      <stop offset="1" stop-color="#00B77C"/>
    </linearGradient>
  </defs>
</svg>
