<svg width="16" height="12" fill="none" xmlns="http://www.w3.org/2000/svg">
  <mask id="a" maskUnits="userSpaceOnUse" x="0" y="0" width="16" height="12">
    <path fill="#fff" d="M0 0h16v12H0z"/>
  </mask>
  <g mask="url(#a)">
    <path fill-rule="evenodd" clip-rule="evenodd" d="M0 0h16v12H0V0z" fill="#C51918"/>
    <path fill-rule="evenodd" clip-rule="evenodd" d="M2 2h12v8H2V2z" fill="#4564F9"/>
    <path d="M2.5 2.5h11v7h-11v-7z" stroke="#CBDAFF" stroke-opacity=".1"/>
    <mask id="b" maskUnits="userSpaceOnUse" x="2" y="2" width="12" height="8">
      <path fill-rule="evenodd" clip-rule="evenodd" d="M2 2h12v8H2V2z" fill="#fff"/>
      <path d="M2.5 2.5h11v7h-11v-7z" stroke="#fff"/>
    </mask>
    <g mask="url(#b)">
      <path fill-rule="evenodd" clip-rule="evenodd" d="M8 2s3 1.448 3 3.859C11 8.269 8 10 8 10S5 8.202 5 5.859C5 3.515 8 2 8 2z" fill="#CCE0E5"/>
      <path d="M8 2l.315-.653-.322-.156-.32.162L8 2zm0 0l.316-.653h0l.001.001.004.002.01.005.032.016a7.63 7.63 0 01.486.276 8.26 8.26 0 011.131.835c.807.713 1.745 1.86 1.745 3.377 0 1.503-.925 2.716-1.718 3.493A9.421 9.421 0 018.408 10.6l-.031.018-.01.006-.003.002h0-.001L8 10m0-8l-.327-.647h0-.002l-.003.003-.01.005-.032.016a8.018 8.018 0 00-.484.284 8.79 8.79 0 00-1.126.85c-.799.715-1.741 1.862-1.741 3.348 0 1.471.928 2.686 1.715 3.464a9.886 9.886 0 001.592 1.27l.031.02.01.006.002.002h.001L8 10m0 0l.362.628-.37.213-.365-.22L8 10z" stroke="#C1C9F1" stroke-opacity=".148" stroke-width="1.45"/>
      <path d="M8.2 3.018l.343-.638-.351-.189-.348.196.356.631zm0 0l.344-.638h.001l.003.002.008.005.024.013.08.047a5.85 5.85 0 011.05.816c.56.554 1.215 1.446 1.215 2.62 0 1.164-.643 2.103-1.19 2.7a6.71 6.71 0 01-1.108.963l-.023.015-.008.005-.002.002h-.001l-.393-.61m0-5.94l-.356-.631h-.002l-.002.002-.008.005-.024.013-.078.048a6.135 6.135 0 00-1.042.83c-.555.554-1.213 1.446-1.213 2.599 0 1.14.646 2.08 1.188 2.677a7.044 7.044 0 001.1.977l.023.016.007.005.003.002h.001L8.2 8.96m0 0l.392.61-.4.256-.394-.263.402-.603z" fill="#CCE0E5"/>
      <path d="M8.2 3.018l.343-.638-.351-.189-.348.196.356.631zm0 0l.344-.638h.001l.003.002.008.005.024.013.08.047a5.85 5.85 0 011.05.816c.56.554 1.215 1.446 1.215 2.62 0 1.164-.643 2.103-1.19 2.7a6.71 6.71 0 01-1.108.963l-.023.015-.008.005-.002.002h-.001 0l-.393-.61m0-5.94l-.356-.631h0-.002l-.002.002-.008.005-.024.013-.078.048a6.135 6.135 0 00-1.042.83c-.555.554-1.213 1.446-1.213 2.599 0 1.14.646 2.08 1.188 2.677a7.044 7.044 0 001.1.977l.023.016.007.005.003.002h.001L8.2 8.96m0 0l.392.61-.4.256-.394-.263.402-.603z" stroke="#C1C9F1" stroke-opacity=".748" stroke-width="1.45"/>
      <path d="M8.2 3.018l.343-.638-.351-.189-.348.196.356.631zm0 0l.344-.638h.001l.003.002.008.005.024.013.08.047a5.85 5.85 0 011.05.816c.56.554 1.215 1.446 1.215 2.62 0 1.164-.643 2.103-1.19 2.7a6.71 6.71 0 01-1.108.963l-.023.015-.008.005-.002.002h-.001 0l-.393-.61m0-5.94l-.356-.631h0-.002l-.002.002-.008.005-.024.013-.078.048a6.135 6.135 0 00-1.042.83c-.555.554-1.213 1.446-1.213 2.599 0 1.14.646 2.08 1.188 2.677a7.044 7.044 0 001.1.977l.023.016.007.005.003.002h.001L8.2 8.96m0 0l.392.61-.4.256-.394-.263.402-.603z" stroke="#C51918" stroke-width="1.45"/>
      <mask id="c" maskUnits="userSpaceOnUse" x="6" y="3" width="5" height="6">
        <path d="M8.666 7.603a5.37 5.37 0 01-.46.441 5.516 5.516 0 01-.469-.457c-.458-.505-.812-1.104-.812-1.703 0-.587.342-1.128.787-1.572.173-.173.348-.316.494-.426.145.105.316.243.485.41.438.432.784.973.784 1.588 0 .627-.357 1.226-.81 1.719z" fill="#fff"/>
        <path d="M8.666 7.603a5.37 5.37 0 01-.46.441 5.516 5.516 0 01-.469-.457c-.458-.505-.812-1.104-.812-1.703 0-.587.342-1.128.787-1.572.173-.173.348-.316.494-.426.145.105.316.243.485.41.438.432.784.973.784 1.588 0 .627-.357 1.226-.81 1.719z" stroke="#fff" stroke-width="1.45"/>
      </mask>
      <g mask="url(#c)">
        <path fill="#91CBCB" d="M6.467 7H10.2v.75H6.467z"/>
        <path fill-rule="evenodd" clip-rule="evenodd" d="M6.8 7.599s2.648 0 2.891-.09c.243-.092-.457 1.753-1.35 1.753C7.445 9.262 6.8 7.6 6.8 7.6z" fill="#FDF9A1"/>
        <path d="M9.297 7.378l-.476.365c-.75-.973-1.064-1.981-.93-3.01l.596.078c-.113.862.153 1.713.81 2.567z" fill="#A68861"/>
        <path fill-rule="evenodd" clip-rule="evenodd" d="M8.197 4.818l-.454.532c-.017.02-.05.004-.043-.022l.156-.663h-.71c-.027 0-.035-.037-.01-.048l.607-.266-.43-.567c-.016-.02.005-.048.028-.038l.677.263.155-.621a.025.025 0 01.048 0l.154.621.67-.26c.025-.01.045.019.03.038l-.466.564.642.266c.025.01.017.048-.01.048H8.61l.096.678c.004.025-.027.039-.043.02l-.465-.545zM7.8 6.5h2.4v.525H7.8V6.5z" fill="#239E46"/>
      </g>
    </g>
  </g>
</svg>
