<svg width="16" height="12" fill="none" xmlns="http://www.w3.org/2000/svg">
  <mask id="a" maskUnits="userSpaceOnUse" x="0" y="0" width="16" height="12">
    <path fill="#fff" d="M0 0h16v12H0z"/>
  </mask>
  <g mask="url(#a)">
    <path fill-rule="evenodd" clip-rule="evenodd" d="M0 0v12h16V0H0z" fill="#2E42A5"/>
    <mask id="b" maskUnits="userSpaceOnUse" x="0" y="0" width="16" height="12">
      <path fill-rule="evenodd" clip-rule="evenodd" d="M0 0v12h16V0H0z" fill="#fff"/>
    </mask>
    <g mask="url(#b)">
      <path fill-rule="evenodd" clip-rule="evenodd" d="M0 6v6h16V6H0z" fill="#E31D1C"/>
      <path fill="#fff" d="M3 2h10v8H3z"/>
      <mask id="c" maskUnits="userSpaceOnUse" x="3" y="2" width="10" height="8">
        <path fill="#fff" d="M3 2h10v8H3z"/>
      </mask>
      <g mask="url(#c)">
        <path fill-rule="evenodd" clip-rule="evenodd" d="M3 8.385s2.4-1.064 5-.999c2.6.065 5 1.249 5 1.249V10H3V8.385z" fill="#279E19"/>
        <path fill-rule="evenodd" clip-rule="evenodd" d="M5.72 3.51a.094.094 0 00-.006.111c.16.254.866 1.257 2.01 1.257 1.103 0 1.924-.93 2.157-1.226a.1.1 0 00-.026-.15C9.685 3.4 9.302 3.2 8.86 3.2c-.597 0-1.135.255-1.135.255S6.924 3.2 6.414 3.2a.893.893 0 00-.694.31z" fill="#026A16"/>
        <path fill-rule="evenodd" clip-rule="evenodd" d="M7.895 7.407l-.896-.567c-.524.243-.786.722-.786 1.44l.694 1.139h2.117l.5-1.14s.196-1.473-.5-1.71l-1.13.838z" fill="#C51918"/>
        <path fill-rule="evenodd" clip-rule="evenodd" d="M5.934 5.816s-1.353.47-1.353 2.202l1.805.357s-.022-.993.518-1.458l-.97-1.101z" fill="#0A328C"/>
        <path d="M5.268 5.264l.215-.218L8 7.523l-.215.218-2.517-2.477zm-.787.581l.177-.252 3.237 2.463-.177.252L4.48 5.845zm-.538.966l.14-.277 3.676 2.004-.139.277L3.943 6.81z" fill="#FFD018"/>
        <path fill-rule="evenodd" clip-rule="evenodd" d="M4.59 8.004l2.421.318-.136.395h-.384l.262.224.589.162v-.386h.516v.819H6.753l-.424-.595s-.357.411-.704.411c-.348 0-.69-.133-.69-.582v-.312l-.344-.136v-.318z" fill="#FECA00"/>
        <path fill-rule="evenodd" clip-rule="evenodd" d="M9.808 5.723s1.586.563 1.586 2.295l-1.82.356s-.083-1.28-.644-1.746l.878-.905z" fill="#0A328C"/>
        <path d="M10.68 5.264l-.225-.218-2.712 2.277.225.217 2.711-2.276zm.819.581l-.185-.252-3.37 2.463v.462l3.555-2.673z" fill="#FFD018"/>
        <path d="M12.058 6.811l-.143-.277-4.058 1.971.143.278 4.058-1.972z" fill="#FFD018"/>
        <path fill-rule="evenodd" clip-rule="evenodd" d="M11.385 8.004l-2.522.318.142.395h.4l-.272.224-.614.162v-.386H7.98v.819h1.152l.441-.595s.371.411.733.411.72-.133.72-.582v-.312l.358-.136v-.318z" fill="#FECA00"/>
        <path fill-rule="evenodd" clip-rule="evenodd" d="M7.692 4.679s-.164 1.203-.164 1.693.164 3.094.164 3.094h.42V6.372c0-.409-.247-1.693-.247-1.693h-.173z" fill="#FECA00"/>
      </g>
    </g>
  </g>
</svg>
