<svg width="16" height="12" fill="none" xmlns="http://www.w3.org/2000/svg">
  <mask id="a" maskUnits="userSpaceOnUse" x="0" y="0" width="16" height="12">
    <path fill="#fff" d="M0 0h16v12H0z"/>
  </mask>
  <g mask="url(#a)">
    <path fill-rule="evenodd" clip-rule="evenodd" d="M0 0v12h16V0H0z" fill="#C51918"/>
    <mask id="b" maskUnits="userSpaceOnUse" x="0" y="0" width="16" height="12">
      <path fill-rule="evenodd" clip-rule="evenodd" d="M0 0v12h16V0H0z" fill="#fff"/>
    </mask>
    <g mask="url(#b)">
      <path fill-rule="evenodd" clip-rule="evenodd" d="M7.991 8.933c.054 0 .107-.001.16-.004l.308.984.072-1.028c.103-.018.204-.042.304-.071l.529.887-.17-1.017a2.99 2.99 0 00.279-.14l.721.743-.402-.952a2.99 2.99 0 00.239-.198l.875.557-.612-.834a2.95 2.95 0 00.186-.247l.98.342-.788-.671c.046-.092.087-.187.124-.284l1.033.109-.923-.473c.023-.1.04-.201.054-.305l1.03-.13-1.008-.249a2.98 2.98 0 00-.018-.309l.972-.362L10.9 5.27a2.926 2.926 0 00-.09-.298l.86-.574-1.01.226a2.965 2.965 0 00-.157-.27l.703-.755-.93.452a3.002 3.002 0 00-.216-.227l.508-.895-.8.651a2.999 2.999 0 00-.262-.172l.286-.986-.626.815a2.985 2.985 0 00-.296-.107l.049-1.023-.42.936a3.019 3.019 0 00-.313-.037L7.995 2l-.19 1.006a3.022 3.022 0 00-.315.035l-.418-.934.049 1.02a3.036 3.036 0 00-.299.108l-.624-.813.285.982c-.091.053-.18.111-.265.173l-.796-.648.505.89a2.95 2.95 0 00-.217.23l-.926-.45.699.75a3.4 3.4 0 00-.159.273l-1.005-.224.855.57a2.925 2.925 0 00-.091.302l-1.03.01.965.36A2.975 2.975 0 005 5.955l-1.001.247 1.023.13c.013.104.032.207.055.309l-.917.469L5.187 7c.037.098.079.194.125.287l-.784.667.976-.34c.058.086.121.17.188.25l-.609.83.871-.556c.077.071.157.138.241.2l-.4.948.72-.74c.09.051.183.098.28.14L6.625 9.7l.529-.885c.1.028.201.052.305.07l.071 1.027.308-.983.153.003zm2.25-2.975a2.259 2.259 0 01-2.268 2.25 2.259 2.259 0 01-2.268-2.25 2.259 2.259 0 012.268-2.25 2.259 2.259 0 012.268 2.25zM7.988 7.709a1.715 1.715 0 001.574-2.396 2.6 2.6 0 00-1.384.502L7.932 6l-.229-.198c-.22-.19-.643-.404-1.294-.477a1.715 1.715 0 001.579 2.384zM6.75 4.807a1.71 1.71 0 011.237-.527c.478 0 .91.196 1.222.512-.49.057-.905.18-1.242.37-.3-.172-.706-.289-1.217-.355z" fill="#FFDC17"/>
    </g>
  </g>
</svg>
