<svg width="16" height="12" fill="none" xmlns="http://www.w3.org/2000/svg">
  <mask id="a" maskUnits="userSpaceOnUse" x="0" y="0" width="16" height="12">
    <path fill="#fff" d="M0 0h16v12H0z"/>
  </mask>
  <g mask="url(#a)">
    <path fill-rule="evenodd" clip-rule="evenodd" d="M0 0v12h16V0H0z" fill="#E31D1C"/>
    <mask id="b" maskUnits="userSpaceOnUse" x="0" y="0" width="16" height="12">
      <path fill-rule="evenodd" clip-rule="evenodd" d="M0 0v12h16V0H0z" fill="#fff"/>
    </mask>
    <g mask="url(#b)">
      <path fill-rule="evenodd" clip-rule="evenodd" d="M7.662 8.588l.229-.496.228.496.136-.528.315.447.038-.544.39.385-.06-.543.454.31-.157-.523.501.224-.248-.487.534.132-.332-.435.549.035-.406-.369.547-.063-.465-.291.527-.159-.51-.204.49-.25-.54-.11.437-.332-.55-.014.37-.403-.543.083.291-.462-.52.178.204-.507-.48.268.11-.535-.424.35.01-.547-.353.418-.087-.538-.273.474-.183-.515-.184.515-.272-.474-.088.538-.354-.418.011.546-.423-.349.109.535-.48-.268.204.507-.52-.178.292.462-.544-.083.37.403-.55.014.437.332-.539.11.49.25-.51.204.526.159-.465.291.547.063-.406.37.55-.036-.333.435.534-.132-.248.487.501-.224-.156.523.453-.31-.06.543.39-.385.038.544.315-.447.136.528z" fill="#FFC84A"/>
      <path fill-rule="evenodd" clip-rule="evenodd" d="M-.396 6.96L.91 6.43a.781.781 0 01.594.002l1.816.756a.784.784 0 00.638-.017l1.464-.703c.21-.1.454-.103.665-.005l1.534.709a.781.781 0 00.652.001l1.57-.716a.781.781 0 01.65.002l1.55.715a.781.781 0 00.642.006l1.693-.746a.781.781 0 01.58-.02l1.517.546v5.007H-.44l.045-5.007z" fill="#F7FCFF"/>
      <mask id="c" maskUnits="userSpaceOnUse" x="-1" y="6" width="18" height="6">
        <path fill-rule="evenodd" clip-rule="evenodd" d="M-.396 6.96L.91 6.43a.781.781 0 01.594.002l1.816.756a.784.784 0 00.638-.017l1.464-.703c.21-.1.454-.103.665-.005l1.534.709a.781.781 0 00.652.001l1.57-.716a.781.781 0 01.65.002l1.55.715a.781.781 0 00.642.006l1.693-.746a.781.781 0 01.58-.02l1.517.546v5.007H-.44l.045-5.007z" fill="#fff"/>
      </mask>
      <g mask="url(#c)">
        <path d="M-.396 8.123l1.307-.53a.781.781 0 01.594.002l1.816.755c.205.086.437.08.638-.017l1.464-.702a.778.778 0 01.665-.005l1.534.708a.781.781 0 00.652.002l1.57-.716a.781.781 0 01.65.002l1.55.715a.78.78 0 00.642.006l1.693-.746a.781.781 0 01.58-.02l1.517.546M-.396 9.787l1.307-.53a.781.781 0 01.594.002l1.816.756a.78.78 0 00.638-.017l1.464-.703c.21-.1.454-.102.665-.005l1.534.71a.78.78 0 00.652.001l1.57-.715a.781.781 0 01.65.001l1.55.716a.78.78 0 00.642.005l1.693-.745a.781.781 0 01.58-.02l1.517.545" stroke="#015989"/>
        <path fill-rule="evenodd" clip-rule="evenodd" d="M-.396 11.114l.546-.222a2.781 2.781 0 012.114.01l1.057.44a.78.78 0 00.638-.018l.615-.295a2.78 2.78 0 012.37-.017l.678.313a.78.78 0 00.652.002l.734-.335a2.781 2.781 0 012.32.005l.716.33a.781.781 0 00.642.007l.962-.424a2.782 2.782 0 012.062-.072l.766.276v1.657H-.304l-.092-1.657z" fill="#015989"/>
      </g>
      <path fill-rule="evenodd" clip-rule="evenodd" d="M4.8 1.199s.713.143.947.143c.235 0 .763-.359 1.069-.24.306.12.894.685.894.685s.833-.625 1.34-.625c.506 0 1.437.068 1.437.068s-.215.557-.818.651c-.603.094-1.325.556-1.325.556h.98c.15 0 .645.277.645.277s-.702.222-.903.222h-.423s-.427.367-.955.289c-.527-.078-.896-.417-.896-.417s-.745-.049-.745-.128c0 0-.284-.146-.37 0-.086.145.37-.196.37-.196s.412-.334.551-.334c.14 0 .605.287.605.287l.111-.115-.576-.441C5.56 2.004 4.8 1.199 4.8 1.199z" fill="#FFC84A"/>
    </g>
  </g>
</svg>
