<svg width="16" height="12" fill="none" xmlns="http://www.w3.org/2000/svg">
  <g mask="url(#KR_-_Korea_(South)__a)">
    <path fill-rule="evenodd" clip-rule="evenodd" d="M0 0v12h16V0H0z" fill="#F7FCFF"/>
    <g mask="url(#KR_-_Korea_(South)__b)">
      <path fill-rule="evenodd" clip-rule="evenodd" d="M7.893 9.286c1.708 0 3.093-1.418 3.093-3.168 0-1.749-1.385-3.167-3.093-3.167S4.8 4.37 4.8 6.118c0 1.75 1.385 3.168 3.093 3.168z" fill="#3D58DB"/>
      <g mask="url(#KR_-_Korea_(South)__c)">
        <path fill-rule="evenodd" clip-rule="evenodd" d="M11.094 6.361s-.173-1.493-1.459-1.574c-1.286-.082-1.632 1.095-1.707 1.406-.074.312-.261 1.143-1.615 1.143S4.837 5.222 4.837 5.222V2.73h6.257v3.63z" fill="#E31D1C"/>
      </g>
      <path fill-rule="evenodd" clip-rule="evenodd" d="M3.65 1.026l.457.414-2.12 2.476-.457-.414 2.12-2.476zm.754.67l.458.413-2.044 2.44-.458-.413 2.044-2.44zm1.209 1.091l-.458-.414-2.05 2.46.458.413 2.05-2.459z" fill="#272727"/>
      <path d="M4.107 1.44l.057.049.048-.056-.055-.049-.05.056zm-.457-.414L3.7.97 3.643.92l-.05.058.057.05zm-1.663 2.89l-.05.055.057.052.05-.058-.057-.05zm-.457-.414l-.057-.049-.048.056.054.049.05-.056zm3.332-1.393l.057.049.047-.056-.054-.048-.05.055zm-.458-.413l.05-.056-.057-.052-.05.06.057.048zM2.818 4.55l-.05.055.057.052.05-.06-.057-.047zm-.458-.414l-.057-.048-.047.055.054.048.05-.055zm2.795-1.763l.05-.055-.057-.053-.05.06.057.048zm.458.414l.057.048.046-.055-.053-.048-.05.055zM3.105 4.832l-.057-.048-.046.055.053.049.05-.056zm.458.414l-.05.055.057.053.05-.06-.057-.048zm.594-3.862L3.7.97l-.1.112.457.413.1-.11zm-2.113 2.58l2.12-2.475-.114-.098-2.12 2.476.114.098zm-.565-.406l.458.413.1-.11-.457-.415-.1.112zM3.593.978l-2.12 2.475.114.098 2.12-2.476-.114-.098zm1.319 1.076l-.458-.414-.1.111.457.414.101-.111zM2.875 4.598l2.044-2.44-.115-.097-2.044 2.44.115.097zM2.31 4.19l.457.414.1-.111-.457-.414-.1.111zm2.037-2.543l-2.044 2.44.115.096 2.044-2.44-.115-.097zm.758.781l.457.414.101-.111-.457-.414-.101.111zM3.163 4.88l2.05-2.458-.115-.097-2.05 2.46.115.095zm.45.31l-.457-.414-.1.112.457.413.1-.11zm1.942-2.45l-2.05 2.458.115.096 2.05-2.459-.115-.096z" fill="#272727"/>
      <path fill-rule="evenodd" clip-rule="evenodd" d="M12.293 1.026l-.458.414 2.12 2.476.458-.414-2.12-2.476zm-.755.67l-.457.413 2.044 2.44.457-.413-2.044-2.44zm-1.209 1.091l.458-.414 2.05 2.46-.458.413-2.05-2.459z" fill="#272727"/>
      <path d="M11.835 1.44l-.057.049-.047-.056.054-.049.05.056zm.457-.414l-.05-.056.058-.05.05.058-.056.05zm1.663 2.89l.05.055-.057.052-.05-.058.057-.05zm.458-.414l.057-.049.047.056-.054.049-.05-.056zM11.08 2.109l-.058.049-.046-.056.053-.048.05.055zm.457-.413l-.05-.056.058-.052.05.06-.058.048zm1.587 2.854l.05.055-.058.052-.05-.06.058-.047zm.457-.414l.058-.048.046.055-.053.048-.05-.055zm-2.795-1.763l-.05-.055.058-.053.05.06-.058.048zm-.458.414l-.057.048-.046-.055.053-.048.05.055zm2.508 2.045l.057-.048.046.055-.053.049-.05-.056zm-.458.414l.05.055-.057.053-.05-.06.057-.048zm-.594-3.862l.457-.414.1.112-.457.413-.1-.11zm2.113 2.58l-2.12-2.475.114-.098 2.12 2.476-.114.098zm.565-.406l-.457.413-.101-.11.457-.415.101.112zM12.35.978l2.12 2.475-.114.098-2.12-2.476.114-.098zm-1.32 1.076l.458-.414.1.111-.457.414-.1-.111zm2.037 2.544l-2.044-2.44.115-.097 2.044 2.44-.115.097zm.566-.407l-.458.414-.1-.111.457-.414.1.111zm-2.037-2.543l2.044 2.44-.115.096-2.045-2.44.115-.097zm-.759.781l-.457.414-.1-.111.457-.414.1.111zM12.78 4.88l-2.05-2.458.116-.097 2.05 2.46-.116.095zm-.45.31l.457-.414.101.112-.457.413-.101-.11zm-1.942-2.45l2.05 2.458-.115.096-2.05-2.459.115-.096z" fill="#272727"/>
      <path fill-rule="evenodd" clip-rule="evenodd" d="M3.65 11.246l.457-.414-2.12-2.476-.457.414 2.12 2.476zm.754-.67l.458-.414-2.044-2.44-.458.414 2.044 2.44zm1.209-1.091l-.458.413-2.05-2.458.458-.414 2.05 2.459z" fill="#272727"/>
      <path d="M4.107 10.832l.057-.049.048.056-.055.049-.05-.056zm-.457.414l.05.056-.057.051-.05-.058.057-.05zm-1.663-2.89l-.05-.055.057-.052.05.058-.057.05zm-.457.414l-.057.049-.048-.056.054-.049.05.056zm3.332 1.393l.057-.049.047.056-.054.048-.05-.056zm-.458.413l.05.056-.057.052-.05-.06.057-.048zM2.818 7.722l-.05-.055.057-.052.05.06-.057.047zm-.458.414l-.057.048-.047-.055.054-.048.05.055zm2.795 1.762l.05.056-.057.053-.05-.06.057-.049zm.458-.413l.057-.048.046.055-.053.048-.05-.055zM3.105 7.44l-.057.048-.046-.055.053-.049.05.056zm.458-.414l-.05-.056.057-.052.05.06-.057.048zm.594 3.862l-.457.414-.1-.112.457-.413.1.11zm-2.113-2.58l2.12 2.475-.114.098-2.12-2.476.114-.098zm-.565.406l.458-.413.1.11-.457.415-.1-.112zm2.114 2.58L1.473 8.82l.114-.098 2.12 2.476-.114.098zm1.319-1.076l-.458.414-.1-.111.457-.414.101.111zM2.875 7.674l2.044 2.44-.115.097L2.76 7.77l.115-.097zm-.565.407l.457-.414.1.111-.457.414-.1-.111zm2.037 2.543l-2.044-2.44.115-.096 2.044 2.44-.115.096zm.758-.781l.457-.414.101.111-.457.414-.101-.111zM3.163 7.392l2.05 2.458-.115.096-2.05-2.458.115-.096zm.45-.31l-.457.413-.1-.11.457-.415.1.112zm1.942 2.45l-2.05-2.458.115-.096 2.05 2.459-.115.096z" fill="#272727"/>
      <path fill-rule="evenodd" clip-rule="evenodd" d="M12.293 11.246l-.458-.414 2.12-2.476.458.414-2.12 2.476zm-.755-.67l-.457-.414 2.044-2.44.457.414-2.044 2.44zm-1.209-1.091l.458.413 2.05-2.458-.458-.414-2.05 2.459z" fill="#272727"/>
      <path d="M11.835 10.832l-.057-.049-.047.056.054.049.05-.056zm.457.414l-.05.056.057.051.05-.058-.056-.05zm1.663-2.89l.05-.055-.057-.052-.05.058.057.05zm.458.414l.057.049.047-.056-.054-.049-.05.056zm-3.332 1.393l-.058-.049-.046.056.053.048.05-.056zm.457.413l-.05.056.058.052.05-.06-.058-.048zm1.587-2.854l.05-.055-.058-.052-.05.06.058.047zm.457.414l.058.048.046-.055-.053-.048-.05.055zm-2.795 1.762l-.05.056.058.053.05-.06-.058-.049zm-.458-.413l-.057-.048-.046.055.053.048.05-.055zm2.508-2.045l.057.048.046-.055-.053-.049-.05.056zm-.458-.414l.05-.056-.057-.052-.05.06.057.048zm-.594 3.862l.457.414.1-.112-.457-.413-.1.11zm2.113-2.58l-2.12 2.475.114.098 2.12-2.476-.114-.098zm.565.406l-.457-.413-.101.11.457.415.101-.112zm-2.113 2.58l2.12-2.475-.114-.098-2.12 2.476.114.098zm-1.32-1.076l.458.414.1-.111-.457-.414-.1.111zm2.037-2.544l-2.044 2.44.115.097 2.044-2.44-.115-.097zm.566.407l-.458-.414-.1.111.457.414.1-.111zm-2.037 2.543l2.044-2.44-.115-.096-2.045 2.44.115.096zm-.759-.781l-.457-.414-.1.111.457.414.1-.111zm1.942-2.451L10.73 9.85l.116.096 2.05-2.458-.116-.096zm-.45-.31l.457.413.101-.11-.457-.415-.101.112zm-1.942 2.45l2.05-2.458-.115-.096-2.05 2.459.115.096z" fill="#272727"/>
    </g>
  </g>
</svg>
