<svg width="16" height="12" fill="none" xmlns="http://www.w3.org/2000/svg">
  <mask id="a" maskUnits="userSpaceOnUse" x="0" y="0" width="16" height="12">
    <rect width="16" height="12" rx="-1" fill="#fff"/>
  </mask>
  <g mask="url(#a)" fill-rule="evenodd" clip-rule="evenodd">
    <path d="M5 0h6v12H5V0z" fill="#4C67E8"/>
    <path d="M11 0h5v12h-5V0zM0 0h6v12H0V0z" fill="#C51918"/>
    <path d="M3.007 3.442c-.507 0-.44-.494-.44-.494l.24-.518v.519c0 .066.091-.067.091-.228 0-.16.109-.401.109-.401l.007-.16a.47.47 0 00.106.13l.03.03c.062.064.053.234.046.38-.007.134-.012.248.037.248.102 0 .095-.459.095-.459l.172.46s.014.493-.493.493zm0-1.41c.013-.075.011.026.007.128a.218.218 0 01-.007-.128zm.762 2.31a.739.739 0 01-.75.727.739.739 0 01-.75-.727c0-.401.336-.727.75-.727s.75.326.75.727zm-1.884 1.36H1v4.286h.885V5.702zm3.115 0h-.885v4.286H5V5.702zm-2.885.037l.863.534.972-.534H2.115zM2.978 10l-.863-.534H3.95L2.978 10zm-.863-3.553h1.808v.336H2.115v-.336zm1.808 2.497H2.115v.336h1.808v-.336zm-.885-.186c.51 0 .924-.4.924-.894s-.414-.895-.924-.895-.923.4-.923.895c0 .494.414.894.923.894zm-1.036-4.15s.03.934.95.934c.921 0 1.07-.934 1.07-.934s-.356.572-1.01.572-1.01-.572-1.01-.572z" fill="#F8D000"/>
  </g>
</svg>
