<svg width="16" height="12" fill="none" xmlns="http://www.w3.org/2000/svg">
  <mask id="a" maskUnits="userSpaceOnUse" x="0" y="0" width="16" height="12">
    <path fill="#fff" d="M0 0h16v12H0z"/>
  </mask>
  <g mask="url(#a)">
    <path fill-rule="evenodd" clip-rule="evenodd" d="M0 0v12h16V0H0z" fill="#1C9975"/>
    <mask id="b" maskUnits="userSpaceOnUse" x="0" y="0" width="16" height="12">
      <path fill-rule="evenodd" clip-rule="evenodd" d="M0 0v12h16V0H0z" fill="#fff"/>
    </mask>
    <g mask="url(#b)">
      <path fill-rule="evenodd" clip-rule="evenodd" d="M8.01 3.427l-.816.493.186-.962-.68-.72.921-.04.39-.898.39.899h.92l-.68.759.205.962-.835-.493zm-2.319.365l-.505.305.115-.595-.42-.445.57-.024.24-.556.241.556h.569l-.42.47.127.594-.517-.305zm4.599 0l-.504.305.115-.595-.42-.445.569-.024.24-.556.242.556h.568l-.42.47.127.594-.516-.305zM4.383 4.805l-.405.245.092-.477-.337-.358.457-.02.193-.445.194.446h.456l-.337.377.102.477-.415-.245zm7.397 0l-.405.245.092-.477-.337-.358.457-.02.193-.445.194.446h.456l-.337.377.102.477-.415-.245z" fill="#FECA00"/>
      <mask id="c" maskUnits="userSpaceOnUse" x="4" y="3" width="8" height="8">
        <path fill-rule="evenodd" clip-rule="evenodd" d="M8 11a4 4 0 100-8 4 4 0 000 8z" fill="#fff"/>
      </mask>
      <g mask="url(#c)">
        <path d="M6.31 11.64H4.358V9.01h1.949c.69-.01 1.194-.207 1.531-.586l.168-.189.187.17c.45.407.899.605 1.353.605h2.152v2.63H9.546c-.522 0-1.026-.197-1.508-.582-.426.379-1.006.571-1.728.581z" fill="#F7FCFF"/>
      </g>
      <path fill-rule="evenodd" clip-rule="evenodd" d="M8.017 3.804s-.854.844-.854 2.002c0 .248.04.482.1.697-.275-.61-.294-1.271-.056-1.993l-.323-.106c-.242.734-.243 1.424-.003 2.063a4.106 4.106 0 00-1.654-.564l-.037.338a3.76 3.76 0 011.451.48 2.69 2.69 0 00-.34-.112c-1.082-.276-2.143.116-2.143.116S4.77 8.098 5.955 8.3c.06.01.118.018.176.024h-.01c-.565 0-1.09-.231-1.582-.7l-.235.246c.553.527 1.16.795 1.818.795.642 0 1.24-.256 1.784-.76a1.91 1.91 0 00.147-.097l.022.018-.017.03s.054.032.15.078c.54.417 1.213.73 1.746.73.657 0 1.265-.267 1.818-.794l-.235-.246c-.492.469-1.018.7-1.583.7a1.89 1.89 0 01-.608-.1c.278.015.585-.01.902-.107 1.167-.357 1.654-1.437 1.654-1.437s-.621-.335-1.41-.339c.176-.045.36-.079.553-.1l-.037-.338c-.74.081-1.38.331-1.918.748.314-.69.339-1.443.074-2.247l-.324.106c.217.658.22 1.266.01 1.83.037-.167.058-.345.058-.534 0-1.22-.89-2.002-.89-2.002zm.376 3.574l-.012.018.015-.018h-.003zm-.826-.08l.034-.03c.03.05.06.097.09.142a3.881 3.881 0 00-.124-.112z" fill="#F7FCFF"/>
    </g>
  </g>
</svg>
