<svg width="16" height="12" fill="none" xmlns="http://www.w3.org/2000/svg">
  <mask id="a" maskUnits="userSpaceOnUse" x="0" y="0" width="16" height="12">
    <path fill="#fff" d="M0 0h16v12H0z"/>
  </mask>
  <g mask="url(#a)">
    <path fill-rule="evenodd" clip-rule="evenodd" d="M0 0v12h16V0H0z" fill="#F50101"/>
    <mask id="b" maskUnits="userSpaceOnUse" x="0" y="0" width="16" height="12">
      <path fill-rule="evenodd" clip-rule="evenodd" d="M0 0v12h16V0H0z" fill="#fff"/>
    </mask>
    <g mask="url(#b)">
      <path fill-rule="evenodd" clip-rule="evenodd" d="M0 0v4h16V0H0z" fill="#F7FCFF"/>
      <path fill-rule="evenodd" clip-rule="evenodd" d="M0 8v4h16V8H0z" fill="#5EAA22"/>
      <path fill="#F50101" d="M0 0h6v12H0z"/>
      <path fill-rule="evenodd" clip-rule="evenodd" d="M5.385 1.016C5.39.971 5.332.953 5.308.993a19.138 19.138 0 01-1.385 2v-.459c-.07-.077-.299-.286-.299-.286V1.79l.412-.373L3.471 1l-.597.417.451.373v.458c0 .22-.273.286-.273.286l-.05.404a18.687 18.687 0 01-1.315-1.924c-.023-.041-.083-.022-.076.025a6.71 6.71 0 00.68 2.06h-.123v-.017a.043.043 0 00-.044-.044H1.07a.043.043 0 00-.043.044v.663c0 .024.02.043.043.043h1.054a.044.044 0 00.044-.043v-.348H2.3a.3.3 0 00.27.18c.084.13.175.26.275.388-.229-.023-1.74-.151-1.74.398 0 .328.368.502.829.592L.83 5.952c-.033.03-.007.08.036.07a7.128 7.128 0 002.2-.977h.029a.68.68 0 00.55-.258c.914.745 1.947 1.09 2.396 1.213.046.013.071-.047.032-.075A13.587 13.587 0 014.048 4.18l.022-.026c.171-.202.32-.41.45-.619a.298.298 0 00.124-.138h.133v.348c0 .024.02.043.043.043h1.054a.044.044 0 00.044-.043v-.663a.043.043 0 00-.044-.044H4.82a.043.043 0 00-.029.012 6.178 6.178 0 00.594-2.034zm-.608 2.082v-.02l-.01.02h.01zM2.82 3.28c0 .134-.11.242-.244.242a.243.243 0 01-.245-.242.244.244 0 01.489 0zm1.304 0c0 .134.11.242.245.242a.243.243 0 00.245-.242.243.243 0 00-.245-.242.243.243 0 00-.245.242z" fill="#F7FCFF"/>
    </g>
  </g>
</svg>
