<svg width="16" height="12" fill="none" xmlns="http://www.w3.org/2000/svg">
  <mask id="a" maskUnits="userSpaceOnUse" x="0" y="0" width="16" height="12">
    <path fill="#fff" d="M0 0h16v12H0z"/>
  </mask>
  <g mask="url(#a)">
    <path fill="#67BD23" d="M0 0h16v12H0z"/>
    <path d="M3.49 2.288s.256 1.164 0 .941c-.254-.223-.822.628-.23.314.593-.314.698-.64.698 0s.283.314-.207.79c-.49.474 1.718.482.729.78-.99.297-1.458.931-.729.698.729-.233 1.902-1.221 1.596-1.479-.306-.257-.156-.205-.156-.789 0-.584-.194-.735-.448-.886-.253-.15.987 1.02 1.401.326.414-.695.364-.247.664 0 .3.246.765.543.765 0 0-.544.615-1.593.615-.516 0 1.076.772 1.632.772.911 0-.721.71-1.427.71-.911s.407.492.755.34c.348-.15.319-.548.319.571 0 1.12.146 2.869-.319 2.721-.464-.147-.03-.813-.465-1.767-.435-.954.443-.957-.465.26-.908 1.219-.763 1.04-1.035.52-.272-.52.886-1.04 0-.78-.887.26-.405 1.72-.646 1.25-.24-.47-.856-2.964-.931-1.717-.075 1.247.236 1.946-.423 1.946-.66 0-1.217.05-.767-.23.451-.278.451-1.249.451-1.249" stroke="#fff" stroke-width=".5"/>
    <path fill-rule="evenodd" clip-rule="evenodd" d="M6.967 7.928c-.407.05-2.461.04-3.075-.107-.138-.03-.06.598.03.742.089.144.787.288 1.03.322.21.028 1.015-.017 1.852-.063l.415-.023c.733-.04 1.804.03 2.363.066.181.011.309.02.355.02.171 0 .158.058.132.174l-.007.031c-.029.138.125.433.193.46.067.028.572 0 .847-.106.156-.06.175-.052.215-.033a.42.42 0 00.2.033c.19 0 .199-.27.206-.46.004-.105.006-.185.037-.185.034 0 .08.102.124.197.066.146.125.276.125.007 0-.447-.525-1.032-.697-.985-.12.033-.319-.003-.453-.028a.98.98 0 00-.127-.019c-.033 0-.023-.008-.001-.026.03-.023.08-.064.08-.124 0-.108-.103-.123-.188-.123s-.13.07-.13.123c0 .053.064.107.064.107l-.188-.002c-.69-.01-3.05-.04-3.402.002zm3.47.945s.055-.031.18-.186c.139-.171.188-.116.24-.06.026.03.052.06.093.06.117 0 .273 0 .374.086.101.086-.133.204-.201.204-.034 0-.06-.021-.084-.043-.026-.021-.052-.043-.088-.043-.041 0-.077.03-.105.055-.02.017-.036.03-.05.03a.239.239 0 01-.07-.033.513.513 0 00-.22-.084c-.043 0-.068.014-.069.014z" fill="#fff"/>
    <path d="M3.892 7.82l.011-.048-.011.049zm3.075.108l.006.05-.006-.05zm-3.045.635l.042-.026-.042.026zm1.03.322l.008-.05-.007.05zm1.852-.063l-.003-.05.003.05zm.415-.023l.003.05-.003-.05zm2.363.066l-.003.05.003-.05zm.487.194l.05.01-.05-.01zm-.007.031l-.048-.01.048.01zm1.04.354l.018.047-.018-.047zm.215-.033l.02-.046-.02.046zm.406-.428l.05.002-.05-.002zm.16.013l.046-.02-.045.02zm-.571-.978l-.013-.048.013.048zm-.453-.028l-.01.05.01-.05zm-.128-.045l-.031-.039.031.04zm-.174-.017v.05h.136l-.104-.088-.032.038zm-.188-.002v.05-.05zm.248.761l.039.032-.039-.032zm-.18.186l.044-.025-.043.025zm.42-.245l-.038.033.037-.033zm.467.145l.033-.038-.033.038zm-.285.161l-.033.039.033-.039zm-.193.012l.033.038-.033-.038zm-.12-.003l.024-.043-.024.043zm-.22-.084v-.05.05zm-6.626-.99c.313.076.986.115 1.626.13.64.014 1.26.004 1.467-.022l-.012-.099c-.2.024-.811.035-1.453.02-.642-.014-1.304-.053-1.605-.126l-.023.097zm.084.668a.625.625 0 01-.055-.166 1.824 1.824 0 01-.037-.248.873.873 0 01.003-.21.12.12 0 01.015-.045c.002-.002.001 0-.002 0a.013.013 0 01-.007.001l.021-.097a.087.087 0 00-.054.005.097.097 0 00-.038.031.212.212 0 00-.033.087.967.967 0 00-.005.236c.007.088.021.181.04.262.017.08.04.152.067.196l.085-.052zm.996.298a5.176 5.176 0 01-.568-.118 2.364 2.364 0 01-.286-.094.67.67 0 01-.098-.049.143.143 0 01-.044-.037l-.085.052c.017.028.046.05.076.07.031.02.07.039.112.056.085.036.19.07.3.099.218.058.455.103.58.12l.013-.099zm1.84-.063c-.418.023-.829.046-1.16.06a5.6 5.6 0 01-.681.003l-.014.1c.11.014.369.01.699-.004.332-.013.743-.036 1.162-.06l-.006-.1zm.416-.023l-.416.023.006.1.415-.024-.005-.1zm2.369.066c-.56-.037-1.633-.106-2.37-.066l.006.1c.73-.04 1.796.029 2.357.065l.007-.1zm.35.02c-.043 0-.168-.008-.35-.02l-.007.1c.18.011.31.02.358.02v-.1zm.182.235c.006-.028.013-.057.015-.082a.146.146 0 00-.012-.083.118.118 0 00-.072-.057.375.375 0 00-.112-.013v.1c.04 0 .066.003.081.008.007.002.01.005.012.006l.003.002c0 .002.003.008 0 .027a.65.65 0 01-.013.07l.098.022zm-.007.03l.007-.03-.098-.022-.006.032.097.02zm.163.404s-.003-.001-.012-.01a.783.783 0 01-.143-.289.252.252 0 01-.008-.104l-.098-.021a.348.348 0 00.009.148.867.867 0 00.168.335.142.142 0 00.046.034l.038-.093zm.81-.106c-.131.05-.32.083-.488.1a2.447 2.447 0 01-.293.01.261.261 0 01-.022-.002l-.007-.002-.038.093a.18.18 0 00.06.01c.022.003.05.004.081.003.063 0 .143-.004.228-.013.17-.017.37-.05.515-.106l-.036-.093zm.254-.033c-.01-.004-.022-.01-.038-.014a.15.15 0 00-.053-.003.716.716 0 00-.163.05l.036.093a.643.643 0 01.138-.043.05.05 0 01.019 0l.02.008.04-.09zm.18.03a.591.591 0 01-.126-.011.244.244 0 01-.054-.019l-.041.091a.3.3 0 00.074.026.743.743 0 00.146.012v-.1zm.155-.414a1.258 1.258 0 01-.033.29.224.224 0 01-.048.093.098.098 0 01-.075.03v.1c.061 0 .11-.022.147-.06a.32.32 0 00.072-.135c.03-.098.033-.22.037-.314l-.1-.004zm.087-.232c-.035 0-.054.024-.063.041a.184.184 0 00-.015.054c-.006.037-.007.086-.01.137l.1.004c.003-.053.004-.096.009-.126a.098.098 0 01.005-.024c.001-.001-.006.014-.026.014v-.1zm.17.227c-.022-.048-.045-.1-.068-.14a.322.322 0 00-.037-.053.085.085 0 00-.065-.034v.1c-.015 0-.018-.01-.01 0 .007.007.015.02.025.037.02.035.041.082.063.13l.091-.04zm.029.027a1.031 1.031 0 01-.009.12v.003c0-.001.003-.006.01-.01a.04.04 0 01.027-.006.031.031 0 01.014.005c.001.001 0 .001 0 0a.342.342 0 01-.024-.04c-.016-.028-.03-.063-.048-.1l-.09.042a2.308 2.308 0 00.072.144.139.139 0 00.03.034.07.07 0 00.03.013.06.06 0 00.043-.008.085.085 0 00.033-.05.606.606 0 00.012-.147h-.1zm-.634-.937c.006-.001.021-.002.048.009a.4.4 0 01.09.054c.07.052.148.132.222.227.15.193.274.44.274.647h.1c0-.24-.14-.509-.295-.708a1.35 1.35 0 00-.24-.246.515.515 0 00-.114-.067.177.177 0 00-.111-.012l.026.096zm-.475-.027c.067.013.152.028.236.036a.7.7 0 00.24-.009l-.027-.096a.606.606 0 01-.204.006 2.837 2.837 0 01-.227-.035l-.018.098zm-.118-.018l.043.005.075.013.018-.098-.078-.014a.406.406 0 00-.058-.006v.1zm-.032-.115a.322.322 0 00-.026.024.06.06 0 00-.012.023.053.053 0 00.038.065.113.113 0 00.032.003v-.1h-.003c.002.001.012.005.02.015a.046.046 0 01.01.042c-.002.009-.007.014-.007.015h-.001a.242.242 0 01.011-.009l-.062-.078zm.06-.085c0 .015-.006.03-.018.045a.258.258 0 01-.042.04l.062.078a.293.293 0 00.059-.056.172.172 0 00.04-.107h-.1zm-.137-.073c.041 0 .079.004.104.016.012.006.02.012.024.02a.065.065 0 01.01.037h.1a.164.164 0 00-.027-.092.156.156 0 00-.064-.055.35.35 0 00-.147-.026v.1zm-.08.073c0-.03.027-.073.08-.073v-.1a.177.177 0 00-.18.173h.1zm.014.107l.032-.038-.002-.002a.23.23 0 01-.024-.025c-.014-.018-.02-.034-.02-.042h-.1c0 .044.025.082.043.104a.315.315 0 00.034.037l.003.003a.01.01 0 01.001 0v.001l.033-.038zm-.188.048c.106 0 .174.002.188.002v-.1l-.187-.002-.001.1zm-3.396.001a7.48 7.48 0 01.577-.019 191.706 191.706 0 012.819.018v-.1c-.345-.005-1.107-.015-1.828-.019-.36-.002-.71-.002-.992.001-.28.003-.497.01-.588.02l.012.1zm3.605.679a1.43 1.43 0 01-.166.174h-.001l-.001.002-.002.001-.005.004a.106.106 0 00-.006.007.087.087 0 00-.003.054l.087-.05a.088.088 0 01-.003.054.084.084 0 01-.006.008l-.005.003-.002.002.003-.002a.276.276 0 00.046-.038c.032-.03.078-.078.142-.156l-.078-.063zm.315-.062c-.012-.013-.028-.031-.046-.045a.125.125 0 00-.078-.027.163.163 0 00-.093.035.547.547 0 00-.098.099l.078.063a.453.453 0 01.079-.08c.02-.015.03-.017.035-.017.004 0 .008 0 .017.007a.25.25 0 01.032.032l.074-.067zm.056.043c-.006 0-.012-.002-.021-.009a.251.251 0 01-.035-.034l-.074.067c.022.025.064.076.13.076v-.1zm.408.098a.414.414 0 00-.206-.087c-.07-.011-.143-.01-.201-.01v.1c.059 0 .123 0 .185.01s.116.028.157.063l.065-.076zm-.234.292a.27.27 0 00.093-.024.488.488 0 00.1-.056.213.213 0 00.076-.088.106.106 0 00-.035-.124l-.065.076a.04.04 0 01.006.007v.001h.001v.004a.12.12 0 01-.042.044.386.386 0 01-.079.044.19.19 0 01-.055.016v.1zm-.117-.054c.023.019.062.054.117.054v-.1c-.013 0-.024-.007-.052-.03l-.065.076zm-.055-.032c.015 0 .027.008.055.032l.065-.077c-.023-.02-.063-.055-.12-.055v.1zm-.072.043a.323.323 0 01.04-.032.063.063 0 01.032-.011v-.1a.162.162 0 00-.083.026.408.408 0 00-.055.041l.066.076zm-.082.043a.09.09 0 00.05-.018l.032-.025-.066-.076a.31.31 0 01-.022.019l-.004.001.01-.001v.1zm-.096-.04a1.042 1.042 0 00.067.034.084.084 0 00.029.006v-.1h.006a.109.109 0 01-.011-.005L10.75 8.9l-.05.087zm-.194-.078c.025 0 .057.009.093.025.035.015.07.035.101.053l.05-.087c-.03-.018-.07-.04-.11-.058a.344.344 0 00-.134-.033v.1zm-.113-.011c.01.012.031.024.04.025a.047.047 0 00.021-.003l.004-.002h.002l.001-.001a.129.129 0 01.045-.008v-.1a.228.228 0 00-.09.019h-.002.002l.003-.002.008-.002h.013c.009 0 .03.012.04.024l-.087.05z" fill="#fff"/>
    <path d="M13.116 2.373S13.923 6 13.116 6s-.807-.316-.807-.316.886.407.641-.659c-.245-1.065-.474-.332-.474-1.269 0-.937-.167-1.566-.167-1.087 0 .48-.111 3.375-.549 2.782-.438-.592-.331-2.426-.331-2.604" stroke="#fff" stroke-width=".5"/>
  </g>
</svg>
