<svg width="16" height="12" fill="none" xmlns="http://www.w3.org/2000/svg">
  <mask id="a" maskUnits="userSpaceOnUse" x="0" y="0" width="16" height="12">
    <path fill="#fff" d="M0 0h16v12H0z"/>
  </mask>
  <g mask="url(#a)">
    <path fill-rule="evenodd" clip-rule="evenodd" d="M0 0v12h16V0H0z" fill="#2E42A5"/>
    <mask id="b" maskUnits="userSpaceOnUse" x="0" y="0" width="16" height="12">
      <path fill-rule="evenodd" clip-rule="evenodd" d="M0 0v12h16V0H0z" fill="#fff"/>
    </mask>
    <g mask="url(#b)">
      <path fill-rule="evenodd" clip-rule="evenodd" d="M0 0v4h16V0H0z" fill="#F7FCFF"/>
      <path fill-rule="evenodd" clip-rule="evenodd" d="M0 8v4h16V8H0z" fill="#C51918"/>
      <path fill-rule="evenodd" clip-rule="evenodd" d="M6.87 2.518s-1.052-.497-2.361-.497c-1.31 0-2.361.497-2.361.497s.117 1.997.302 3.056c.079.451.459 1.11.803 1.422.392.356 1.256.777 1.256.777.25-.173.718-.25 1.315-.777.598-.527.747-1.422.747-1.422l.3-3.056z" fill="#2E42A5"/>
      <path d="M6.731 2.453l.438.219-.3 3.011c-.106.637-.37 1.14-.791 1.512a3.422 3.422 0 01-.692.477l-.695.36a1.01 1.01 0 00-.134.074l-.055.038-.06-.029c-.584-.285-1.13-.669-1.402-.915-.37-.336-.761-1.023-.844-1.5-.125-.711-.237-1.692-.315-3.028l.394-.206c.077 1.326.171 2.384.294 3.083.072.413.432 1.047.76 1.345.244.22.635.465 1.173.73l.108-.057c.001 0 .367-.163.495-.23.223-.116.43-.256.643-.444.375-.33.608-.774.703-1.338l.28-3.102z" fill="#C51918" stroke="#C51918"/>
      <path fill-rule="evenodd" clip-rule="evenodd" d="M2.771 5.512s.258.789.71 1.23c.451.44 1.01.655 1.01.655s.664-.2 1.042-.624c.377-.424.763-1.26.763-1.26L5.42 4.67l-.349.378-.58-.826-.485.826-.372-.378-.862.842z" fill="#fff"/>
      <path fill-rule="evenodd" clip-rule="evenodd" d="M3.573 2.943h-.351l.273-.255-.273-.27h.351l.149-.262.149.262h.35l-.258.253.23.272H3.87l-.15.277-.148-.277zm1.657 0h-.35l.272-.255-.272-.27h.351l.149-.262.149.262h.35l-.258.253.23.272h-.322l-.15.277-.148-.277zm-.93.841h-.352l.273-.256-.273-.27H4.3l.148-.262.15.262h.35l-.259.254.23.272h-.322l-.149.276-.148-.276z" fill="#FECA00"/>
    </g>
  </g>
</svg>
