<svg width="16" height="12" fill="none" xmlns="http://www.w3.org/2000/svg">
  <mask id="a" maskUnits="userSpaceOnUse" x="0" y="0" width="16" height="12">
    <path fill="#fff" d="M0 0h16v12H0z"/>
  </mask>
  <g mask="url(#a)">
    <path fill-rule="evenodd" clip-rule="evenodd" d="M0 0v12h16V0H0z" fill="#3D58DB"/>
    <mask id="b" maskUnits="userSpaceOnUse" x="0" y="0" width="16" height="12">
      <path fill-rule="evenodd" clip-rule="evenodd" d="M0 0v12h16V0H0z" fill="#fff"/>
    </mask>
    <g mask="url(#b)">
      <path fill-rule="evenodd" clip-rule="evenodd" d="M0 0v4h16V0H0z" fill="#F7FCFF"/>
      <path fill-rule="evenodd" clip-rule="evenodd" d="M0 8v4h16V8H0z" fill="#E31D1C"/>
      <path d="M7.802 3.015l.249-.026-.024-.224H2.939l-.016.233.25.017-.25-.017h0v.008l-.002.024-.006.088a61.92 61.92 0 00-.07 1.344c-.033.77-.055 1.67.001 2.091.11.822.61 2.665 2.544 3.5l.1.044.101-.045c1.837-.821 2.452-2.475 2.593-3.497.072-.516.036-1.418-.015-2.168A40.918 40.918 0 008.062 3.1l-.008-.083-.003-.022V2.99h0l-.249.026z" fill="#E31D1C" stroke="#fff" stroke-width=".5"/>
      <mask id="c" maskUnits="userSpaceOnUse" x="2" y="2" width="7" height="9">
        <path d="M7.802 3.015l.249-.026-.024-.224H2.939l-.016.233.25.017-.25-.017h0v.008l-.002.024-.006.088a61.92 61.92 0 00-.07 1.344c-.033.77-.055 1.67.001 2.091.11.822.61 2.665 2.544 3.5l.1.044.101-.045c1.837-.821 2.452-2.475 2.593-3.497.072-.516.036-1.418-.015-2.168A40.918 40.918 0 008.062 3.1l-.008-.083-.003-.022V2.99h0l-.249.026z" fill="#fff" stroke="#fff" stroke-width=".5"/>
      </mask>
      <g mask="url(#c)" fill-rule="evenodd" clip-rule="evenodd">
        <path d="M4.931 3.295s.103.157.15.398c.046.24.054.514.054.514l-.782-.12v.89l.804-.128-.024.934s-.102.031-.348 0a7.715 7.715 0 01-.73-.161v.85s.492-.157.73-.193c.238-.036.348 0 .348 0l.008.815h.797l-.008-.815s.251-.039.516.003.517.19.517.19v-.85s-.255.127-.495.158c-.24.032-.538.003-.538.003l.024-.934s.14-.034.326-.009c.187.026.42.137.42.137v-.89s-.228.123-.407.146c-.179.022-.36-.026-.36-.026s.006-.287.044-.499c.039-.212.148-.413.148-.413H4.931z" fill="#F7FCFF"/>
        <path d="M3.449 8.123s.22-.472.577-.562c.358-.09.733.281.733.281s.228-.748.787-.748c.558 0 .753.748.753.748s.239-.28.58-.28c.343 0 .66.56.66.56S6.518 9.98 5.495 9.98 3.45 8.123 3.45 8.123z" fill="#2E42A5"/>
      </g>
    </g>
  </g>
</svg>
