<svg width="16" height="12" fill="none" xmlns="http://www.w3.org/2000/svg">
  <mask id="a" maskUnits="userSpaceOnUse" x="0" y="0" width="16" height="12">
    <path fill="#fff" d="M0 0h16v12H0z"/>
  </mask>
  <g mask="url(#a)" fill-rule="evenodd" clip-rule="evenodd">
    <path d="M0 0v12h16V0H0z" fill="#FBCD17"/>
    <path d="M0 0v4h16V0H0zm0 8v4h16V8H0z" fill="#73BE4A"/>
    <path d="M0 0v12l5-6-5-6z" fill="#C51918"/>
    <path d="M8.5 6.935l-.934.565.213-1.102L7 5.573l1.055-.044L8.5 4.5l.446 1.029H10l-.777.87.234 1.101-.956-.565zm4 0l-.934.565.213-1.102L11 5.573l1.055-.044L12.5 4.5l.446 1.029H14l-.777.87.234 1.101-.956-.565z" fill="#272727"/>
  </g>
</svg>
