<svg width="16" height="12" fill="none" xmlns="http://www.w3.org/2000/svg">
  <mask id="a" maskUnits="userSpaceOnUse" x="0" y="0" width="16" height="12">
    <rect width="16" height="12" rx="-1" fill="#fff"/>
  </mask>
  <g mask="url(#a)">
    <path fill-rule="evenodd" clip-rule="evenodd" d="M0 0v12h16V0H0z" fill="#FECA00"/>
    <mask id="b" maskUnits="userSpaceOnUse" x="0" y="0" width="16" height="12">
      <path fill-rule="evenodd" clip-rule="evenodd" d="M0 0v12h16V0H0z" fill="#fff"/>
    </mask>
    <g mask="url(#b)">
      <path fill="#272727" d="M0 0h16v2H0z"/>
      <path fill="#D74800" d="M0 4h16v2H0z"/>
      <path fill="#272727" d="M0 6h16v2H0z"/>
      <path fill="#D74800" d="M0 10h16v2H0z"/>
      <path fill-rule="evenodd" clip-rule="evenodd" d="M8 9a3 3 0 100-6 3 3 0 000 6z" fill="#F7FCFF"/>
      <path fill-rule="evenodd" clip-rule="evenodd" d="M6.84 4.164l-.53.174.53.045s.085.21 0 .373a.86.86 0 01-.15.162c-.21.2-.553.525-.553 1.055 0 .71 1.37 1.032 1.37 1.032v.337s.159.1-.748.1c-.787 0-.738.298-.711.461a.436.436 0 01.008.065c0 .129.378-.13.555-.387.093-.135.483-.128.884-.09.031.002.324.62.07.94-.107.135-.474.152-.704.163-.117.006-.199.01-.191.026.006.013.075.009.176.003.125-.008.3-.018.461-.003.024.003-.07.085-.166.168-.099.086-.199.172-.17.174.031.001.216-.101.384-.194.139-.077.266-.148.285-.148.127 0 .241.016.342.03.168.023.296.04.377-.03.025-.021-.12-.056-.267-.091-.151-.036-.306-.073-.282-.098.14-.138.081-.428.036-.656a1.198 1.198 0 01-.036-.251c.012-.207.232-.099.404-.013.075.037.142.07.178.07.327 0-.079-.413-.301-.64l-.054-.054c-.113-.117-.034-.101.146-.066.137.027.332.066.544.066.49 0 .848-.16.724-.591-.082-.285-.531-.381-1-.483a4.563 4.563 0 01-.695-.186c-.505-.199-.48-.49-.457-.734.004-.048.008-.094.008-.137 0-.266.449-.592.449-.592s-.205-.343-.545-.343c-.34 0-.371.343-.371.343zm.924 3.124v-.25s.21-.008.283.169c.074.176-.283.081-.283.081z" fill="#272727"/>
      <path fill-rule="evenodd" clip-rule="evenodd" d="M6.538 3.356l.507.6.263-.061-.126-.607-.644.068z" fill="#D74800"/>
      <path fill-rule="evenodd" clip-rule="evenodd" d="M7.196 3.21l.033.904.433-.107.184-.591-.65-.206z" fill="#FFD018"/>
      <path fill-rule="evenodd" clip-rule="evenodd" d="M6.788 4.72a.171.171 0 00.174-.17.171.171 0 00-.174-.168.171.171 0 00-.173.169.17.17 0 00.173.168zm1.1-1.34l-.504.603.107.248.575-.23-.178-.621zM9.06 7.947s.886-.396.886-.95c0-.554-1.44-1.157-1.44-1.157s-.846.194-.464.453c.381.26.892.36.892.704 0 .345.14.674-.144.674-.283 0 .27.276.27.276z" fill="#D74800"/>
      <path fill-rule="evenodd" clip-rule="evenodd" d="M7.78 5.74s-.313.054-.298.105c.041.14.47.324.657.451.381.26.743.23 1.012.061.27-.168-1.37-.618-1.37-.618z" fill="#FFFDFF"/>
    </g>
  </g>
</svg>
