<svg width="16" height="12" fill="none" xmlns="http://www.w3.org/2000/svg">
  <mask id="a" maskUnits="userSpaceOnUse" x="0" y="0" width="16" height="12">
    <path fill="#fff" d="M0 0h16v12H0z"/>
  </mask>
  <g mask="url(#a)">
    <path fill-rule="evenodd" clip-rule="evenodd" d="M0 8h16v4H0V8z" fill="#14DC5A"/>
    <path fill-rule="evenodd" clip-rule="evenodd" d="M0 0h16v5H0V0z" fill="#0099B5"/>
    <path d="M-1 4.625h-.375v3.75h18.75v-3.75H-1z" fill="#F7FCFF" stroke="#C51918" stroke-width=".75"/>
    <path fill-rule="evenodd" clip-rule="evenodd" d="M8.364 1.2l-.492.28.14-.567-.47-.417h.615l.206-.536.242.536h.524l-.412.417.198.566-.551-.279zm-2.52 1.538l.492-.28.551.28-.198-.567.412-.416h-.524l-.242-.536-.206.536h-.615l.471.416-.14.567zM4.489 3.777l-.491.278.14-.566-.47-.417h.614l.207-.536.241.536h.524l-.411.417.198.566-.552-.278zm1.876.002l-.49.278.14-.566-.471-.416h.614l.207-.536.241.536h.524l-.411.416.198.566-.552-.278zm2 0l-.49.278.14-.566-.471-.416h.614l.207-.536.241.536h.524l-.411.416.198.566-.552-.278zm-.52-1.041l.492-.28.551.28-.198-.567.412-.416h-.524l-.242-.536-.206.536h-.615l.471.416-.14.567zm2.03 1.32l.49-.28.552.28-.198-.567.412-.416h-.525l-.241-.536-.207.536h-.614l.47.416-.14.566zm.462-1.6l-.491.28.14-.567-.47-.416h.614l.206-.536.242.536h.524l-.412.416.198.567-.55-.28zm-.464-.979l.492-.279.551.28-.198-.567.412-.417h-.524l-.242-.536-.206.536h-.615l.47.417-.14.566zm2.492 2.3l-.49.278.14-.566-.471-.416h.615l.206-.536.241.536h.524l-.411.416.198.566-.552-.278zm-.52-1.041l.492-.28.551.28-.198-.567.412-.416h-.524l-.242-.536-.206.536h-.615l.471.416-.14.567zm.52-1.538l-.492.28.14-.567-.47-.417h.615l.206-.536.242.536h.524l-.412.417.198.566-.551-.279zM2.942 4.12s-1.207-.327-1.185-1.54C1.78 1.37 3 1.056 3 1.056c-.498-.19-1.972.064-2 1.514-.027 1.45 1.478 1.735 1.942 1.551z" fill="#F7FCFF"/>
  </g>
</svg>
