<svg width="16" height="12" fill="none" xmlns="http://www.w3.org/2000/svg">
  <g mask="url(#VI_-_Virgin_Islands_(U_S_)__a)">
    <path fill-rule="evenodd" clip-rule="evenodd" d="M0 0v12h16V0H0z" fill="#F7FCFF"/>
    <g mask="url(#VI_-_Virgin_Islands_(U_S_)__b)">
      <path fill-rule="evenodd" clip-rule="evenodd" d="M8.574 2.963c0 .093.42 1.39.42 1.39H6.952l.574-1.122s.084-.214-.121-.268c-.206-.054-.453.18-.453.18s.06-.373.14-.454c.082-.08.553-.287.947-.287.393 0 .536.47.536.561zm-7.185-.528c.156-.068 1.75.407 2.944.763.686.205 1.24.37 1.313.37.2 0 1.02.843 1.02.843v1.886s-2.589-.537-5.03-3.185c-.358-.355-.494-.571-.247-.677zm5.033 3.98s-.272.188-.572.689c-.148.246-.16.463-.168.62-.01.163-.015.26-.162.26-.173 0-.298.038-.4.068a.677.677 0 01-.185.039c-.137 0-.4.517-.269.637.132.12.683.31.683 0s.149-.487.418-.487c.27 0 .751-.179.751-.57 0-.392.525-.364.525-.364l-.621-.891zm5.359-3.217c1.193-.356 2.787-.83 2.944-.763.247.106.111.322-.247.676-.959 1.716-5.03 3.186-5.03 3.186V4.411s.82-.843 1.02-.843c.072 0 .626-.165 1.313-.37zM9.69 6.416s.272.187.572.688c.148.246.16.463.169.62.009.163.014.26.162.26.173 0 .298.038.4.068.07.021.129.039.184.039.137 0 .4.517.27.637-.133.12-.684.31-.684 0s-.148-.487-.418-.487-.75-.179-.75-.57c0-.392-.526-.364-.526-.364l.622-.891zM6.255 8.5c0-.17.821-1.082.821-1.082l.918-.387.011.232.012-.232.917.387s.821.912.821 1.082c0 .171-1.574 1.565-1.738 1.565a.017.017 0 01-.012-.006.017.017 0 01-.011.006c-.164 0-1.739-1.394-1.739-1.565z" fill="#E8AA00"/>
      <path d="M3.123 5.496l.949-.316c.641 1.927 1.26 3.172 1.815 3.71l-.696.719c-.703-.681-1.379-2.044-2.068-4.113z" fill="#46A000"/>
      <path fill-rule="evenodd" clip-rule="evenodd" d="M14.346 5.17h-1.069s.227 0 .252.218c0 0 .005 1.847 0 1.992-.006.145-.252.195-.252.195s1.297.004 1.069 0c-.228-.004-.278-.195-.278-.195V5.388c0-.168.278-.219.278-.219zM2.283 7.426c-.121-.313-.868-2.225-.868-2.225h.74c-.13 0-.177.164-.177.164l.518 1.476s.5-1.205.5-1.42c0-.213-.21-.22-.21-.22h.964l-.232.078s-.772 1.768-.772 2.147c-.036.084.355.14.355.14H2.066l.217-.14zm8.85-.699l.573-1.055.017 1.174-.178-.057-.125.784.633-1.215-.21-.08.783-.848-.267 1.147-.152-.134-.898 1.676 1.003-1.148-.194-.097.99-.648-.43 1.056-.24-.173L11.42 8.39l-.422-.162.422-1.5h-.287zm-.33 2.002h-.317v.24h-.25l-.706.82h.39l.135.461.181-.162v.162l.354-.162.339.293.252-1.127-.17-.125.088-.076-.088-.324h-.208z" fill="#0093E1"/>
      <path fill-rule="evenodd" clip-rule="evenodd" d="M6.172 4.006s.465.322.93.322c.466 0 .93-.322.93-.322s.466.322.932.322c.465 0 .93-.322.93-.322v1.45c0 1.5-1.861 2.663-1.861 2.663s-1.951-1.067-1.861-2.68V4.006z" fill="#F7FCFF"/>
      <g mask="url(#VI_-_Virgin_Islands_(U_S_)__c)" fill-rule="evenodd" clip-rule="evenodd">
        <path d="M6.04 3.91h3.92v1.51H6.04V3.91z" fill="#2E42A5"/>
        <path d="M6.798 5.42h-.33v3.052h.33V5.42zm.56 0h-.33v3.052h.33V5.42zm.23 0h.33v3.052h-.33V5.42zm.89 0h-.33v3.052h.33V5.42zm.23 0h.33v3.052h-.33V5.42zm.89 0h-.33v3.052h.33V5.42z" fill="#AF0100"/>
      </g>
    </g>
  </g>
</svg>
